<svg id="Layer_1" data-name="Layer 1" xmlns="http://www.w3.org/2000/svg" viewBox="0 0 1848.45 466.67"><defs><style>.cls-1{font-size:314.48px;fill:#231f20;font-family:GodOfWar;}</style></defs><text class="cls-1" transform="translate(433.92 321.67)">OLIMPO</text><path d="M74.79,313.07q0-44.93,0-89.84a31.34,31.34,0,0,1,.54-6.93c3.22-14,11.45-19.83,25.69-18.48,11.23,1.06,18.71,9.77,19.26,22.86.29,6.81.08,13.64.08,20.47q0,59.39,0,118.78c0,1.72-1,4.12.81,5.05,1.53.77,2.68-1.56,4.16-2.2,10.83-4.69,13-12.94,12.74-24.32-.8-37.25-.28-74.53-.32-111.79a41.76,41.76,0,0,1,3-16.08c4-9.59,10-13.17,21.3-12.86,10.32.29,16.21,4.43,19.62,13.92a42.53,42.53,0,0,1,2.56,14.64q-.1,47.93,0,95.83c0,6.27-.19,5.5,5.49,4,10.22-2.74,12.4-8.79,12.12-18.87-.8-28.43-.33-56.89-.26-85.34,0-13.78,7.53-22.71,20.43-23.83a26.38,26.38,0,0,1,20.29,6.69c3.7,3.27,4.9,7.68,4.88,12.6q-.09,40.42,0,80.86c0,6.41,0,6.42,6,4.79,11.47-3.15,11.47-3.15,11.47-15,0-20.29,0-40.59,0-60.89a48.36,48.36,0,0,1,.86-8.9c3-15.65,12.71-22.42,28.36-19.84,11.12,1.83,18,11.1,18.11,25.15.17,20.12.05,40.26.06,60.39,0,6,0,6,6.13,5.25,9.5-1.21,9.45-1.22,9.52-10.79.13-16.8-.47-33.6.64-50.38A52.67,52.67,0,0,1,331,213.85c4.4-12.46,12.49-17.35,25.38-15.42,12,1.79,19.1,9.71,19.4,22.19.29,12.31.1,24.63.12,36.94,0,4.16-.46,8.38.09,12.46,1.46,11-2.6,19.9-8.55,28.75-22.33,33.23-51.67,58.82-85.46,79.67-38.86,24-81,39.94-125.16,50.86a13.88,13.88,0,0,1-9.59-1.07,195.67,195.67,0,0,0-65.87-16.65c-6.4-.5-6.53-.55-6.53-7.18Q74.78,358.74,74.79,313.07Zm254.63-2.17C274.77,318.82,224,334,176.85,360.45a289.45,289.45,0,0,0-52.31,37.25c-1,.85-2.55,1.58-2.2,3.07s2.16,1.27,3.38,1.61c9.12,2.55,18.25,5.07,27.07,8.57a9.46,9.46,0,0,0,6.29.49c47.13-12.82,91.19-32.12,130.22-61.94A248.23,248.23,0,0,0,329.42,310.9Z"/><path d="M223.32,37q87.3,0,174.59,0a48.48,48.48,0,0,1,16.64,2.67c11,3.94,17.32,12.67,16.56,22.84-.9,12-9.22,22.4-20,24.66a43.48,43.48,0,0,1-8.89.92q-176.08.06-352.17,0a40.89,40.89,0,0,1-18.33-4c-8.84-4.35-14-13.68-12.61-22.86,1.9-13,8.8-21.53,19.17-23.34A64.19,64.19,0,0,1,49.23,37Q136.28,36.94,223.32,37Z"/><path d="M225.2,160.59q76.08,0,152.18,0c10.09,0,15.8,5.28,16.48,14.79.38,5.32-1.78,9-6.55,11.19-5.72,2.61-11.85,3.29-18,3.29-48.23,0-96.48.56-144.69-.43-24.62-.51-49.19,1-73.76.31-23.77-.68-47.5.51-71.24.16a42.52,42.52,0,0,1-14.69-2.36c-5.85-2.22-9.23-7.21-8.81-12.57.55-6.92,4.51-12,10.49-13.7a28.58,28.58,0,0,1,7.92-.69Z"/><path d="M224.34,156H70.72c-8.25,0-12.1-2.23-13.89-7.93a15.8,15.8,0,0,1,6-17.62c2.65-2,5.57-1.88,8.56-1.88H276.92q51.12,0,102.24,0c5.66,0,10,2,12.65,7.19s2.88,10.12-.61,15c-3,4.29-7.36,5.25-12.25,5.24q-40.14-.07-80.3,0Z"/><path d="M224.18,123.17c-9.59,1.51-15.49-8.32-15.3-15.12a16.59,16.59,0,0,1,16.6-16.42c7.54-.16,15.55,7.69,15.63,15.3C241.22,117.26,235.05,123.18,224.18,123.17Z"/><path d="M302.85,123.17c-9.46,0-15.26-6.13-15.29-16.16,0-7.19,8.15-15.36,15.45-15.42,8.54-.08,17.06,8.21,16.91,16.45C319.75,117.5,313.35,123.18,302.85,123.17Z"/><path d="M381.8,123.17c-9.69,0-15.16-5.78-15.21-16.11,0-8.66,7-15.48,16-15.51,8.52,0,15.87,7.87,16,17.17C398.61,117.2,391.7,123.17,381.8,123.17Z"/><path d="M106.09,123.17c-9.54,0-16.15-6.75-16.09-16.38,0-7.41,8.57-15,17.1-15.15,7.58-.17,15.23,7.25,15.23,14.76C122.32,117.63,116.93,123.2,106.09,123.17Z"/><path d="M342.32,123.17c-9.72,0-15.93-6.39-15.91-16.32,0-8,7.73-15.08,16.67-15.24,7.51-.13,15.69,8.18,15.65,15.89C358.67,117.33,352.53,123.19,342.32,123.17Z"/><path d="M68.28,123.17c-10.87,0-16.43-5-16.45-14.77S58.7,91.55,68.25,91.63c7.72.06,15.26,8.15,15.18,16.28C83.34,117.56,77.78,123.16,68.28,123.17Z"/><path d="M264.21,123.17c-11.27,0-14.76-3.39-14.75-14.31s5.27-17.36,14.1-17.3c10,.07,16.55,6.67,16.46,16.58C279.93,117.32,273.77,123.18,264.21,123.17Z"/><path d="M146.51,123.17c-10.24-.08-16.28-5.52-16.37-14.76A16.85,16.85,0,0,1,147.5,91.62c7.52.25,14.76,8.17,14.79,16.17C162.32,115.53,154.42,123.22,146.51,123.17Z"/><path d="M186.32,123.16c-10.4,0-16.16-5.7-16.1-15.88.06-9.13,6.75-15.82,15.68-15.67,7.94.12,15.18,7.2,15.16,14.8C201,117,195.54,123.18,186.32,123.16Z"/></svg>